<?xml version="1.0" standalone="no"?>
<!DOCTYPE svg PUBLIC "-//W3C//DTD SVG 20010904//EN"
 "http://www.w3.org/TR/2001/REC-SVG-20010904/DTD/svg10.dtd">
<svg version="1.0" xmlns="http://www.w3.org/2000/svg"
 width="512.000000pt" height="512.000000pt" viewBox="0 0 512.000000 512.000000"
 preserveAspectRatio="xMidYMid meet">
<metadata>
Created by potrace 1.14, written by Peter Selinger 2001-2017
</metadata>
<g transform="translate(0.000000,512.000000) scale(0.100000,-0.100000)"
fill="#000000" stroke="none">
<path d="M1815 3595 c-237 -44 -405 -192 -500 -440 -27 -69 -45 -181 -45 -275
1 -310 141 -564 375 -675 106 -51 168 -66 302 -72 132 -6 245 7 326 37 l47 18
1 -71 c0 -40 1 -192 1 -339 l1 -268 420 0 420 0 -7 77 c-3 42 -6 97 -6 123 l0
48 -260 -1 c-143 0 -263 2 -266 5 -3 3 -6 266 -7 584 l-2 579 -285 -2 c-157
-2 -299 -3 -316 -3 l-31 0 1 -122 1 -123 100 -2 c55 -1 128 -2 163 -2 l62 -1
0 -83 c0 -99 -1 -100 -112 -151 -136 -63 -284 -69 -396 -15 -62 30 -142 111
-171 173 -63 136 -71 373 -17 524 35 98 130 187 231 217 63 20 198 19 264 -1
63 -18 148 -96 176 -162 16 -37 22 -42 44 -38 14 3 77 14 140 25 62 11 116 23
119 26 9 8 -37 142 -54 159 -7 8 -14 19 -14 25 0 6 -29 40 -64 76 -48 49 -83
74 -141 100 -132 61 -335 81 -500 50z"/>
<path d="M1090 3400 c-8 -6 -49 -24 -90 -41 -41 -17 -93 -40 -115 -50 -68 -30
-287 -126 -350 -152 -33 -14 -123 -53 -200 -87 -77 -34 -152 -66 -167 -72
l-28 -10 0 -118 0 -118 38 -15 c20 -8 62 -26 92 -40 30 -14 84 -37 120 -52 36
-15 85 -36 110 -47 25 -12 81 -36 125 -55 44 -19 114 -50 155 -68 41 -18 112
-49 156 -68 45 -19 101 -44 125 -55 24 -11 46 -19 47 -17 9 9 6 259 -3 270 -5
6 -44 24 -85 40 -41 15 -88 34 -105 41 -27 12 -70 29 -310 123 -38 15 -79 31
-90 36 -11 5 -22 9 -25 9 -3 1 -13 6 -23 12 -16 9 -3 16 75 44 51 18 99 37
106 43 6 5 12 6 12 3 0 -4 10 -2 21 5 12 6 56 24 98 39 175 65 268 101 301
115 l35 16 -1 135 c-1 74 -3 137 -6 139 -2 2 -10 0 -18 -5z"/>
<path d="M3706 2953 c-3 -10 -17 -67 -31 -128 -33 -138 -29 -120 -60 -250 -14
-60 -37 -155 -50 -210 -14 -55 -38 -158 -55 -230 -17 -71 -33 -137 -35 -145
-2 -8 -22 -94 -45 -190 -23 -96 -43 -179 -44 -185 -2 -5 -6 -23 -10 -40 -4
-16 -10 -38 -13 -47 -4 -16 5 -18 100 -18 l104 0 37 158 c20 86 39 164 41 172
2 8 17 71 34 140 29 126 103 431 122 505 13 54 13 54 44 185 24 101 56 230 71
283 5 15 -4 17 -100 17 -91 0 -105 -2 -110 -17z"/>
<path d="M4032 2615 l3 -136 85 -34 c47 -18 168 -65 270 -105 102 -39 199 -77
215 -85 17 -7 42 -17 58 -20 52 -13 77 -2 -380 -181 l-253 -99 0 -137 c0 -76
2 -138 4 -138 5 0 69 27 142 60 35 17 66 30 68 30 2 0 30 12 62 27 33 15 61
27 64 28 3 1 31 13 64 28 32 15 60 27 62 27 2 0 33 14 69 30 37 17 92 41 123
54 87 37 212 91 265 115 l47 21 1 60 c0 33 1 74 1 90 0 93 7 84 -99 128 -54
23 -145 62 -203 88 -114 50 -257 112 -415 179 -55 24 -125 54 -155 68 -30 13
-65 27 -78 31 l-23 8 3 -137z"/>
</g>
</svg>
