<?xml version="1.0" encoding="iso-8859-1"?>
<!-- Generator: Adobe Illustrator 19.0.0, SVG Export Plug-In . SVG Version: 6.00 Build 0)  -->
<svg version="1.1" id="Capa_1" xmlns="http://www.w3.org/2000/svg" xmlns:xlink="http://www.w3.org/1999/xlink" x="0px" y="0px"
	 viewBox="0 0 512 512" style="enable-background:new 0 0 512 512;" xml:space="preserve">
<circle style="fill:#F2F2F2;" cx="256" cy="256" r="256"/>
<path style="fill:#FCAB1A;" d="M255.997,0.001L255.997,0.001c-46.657,0-84.48,37.823-84.48,84.48v78.222
	c0,46.657,37.823,84.48,84.48,84.48l0,0c46.657,0,84.48-37.823,84.48-84.48V84.481C340.477,37.824,302.654,0.001,255.997,0.001z"/>
<path style="fill:#74AEE0;" d="M340.48,375.474v78.221c0,5.402-0.502,10.679-1.473,15.788c-2.299,12.173-7.21,23.427-14.137,33.144
	C302.958,508.74,279.865,512,256,512s-46.958-3.26-68.869-9.373c-6.928-9.718-11.839-20.971-14.137-33.155
	c-0.972-5.11-1.473-10.386-1.473-15.778v-78.221c0-9.07,1.432-17.795,4.075-25.987c8.307-25.767,28.662-46.122,54.429-54.429
	c5.35-1.735,10.93-2.936,16.687-3.563c3.051-0.345,6.154-0.512,9.289-0.512c3.145,0,6.238,0.167,9.289,0.512
	c5.757,0.627,11.337,1.829,16.687,3.563c25.767,8.317,46.111,28.662,54.429,54.429C339.048,357.679,340.48,366.404,340.48,375.474z"
	/>
<path style="fill:#F0E400;" d="M446.269,78.815L446.269,78.815c-32.992-32.992-86.481-32.992-119.473,0l-55.312,55.312
	c-32.992,32.992-32.992,86.481,0,119.473l0,0c32.992,32.992,86.481,32.992,119.473,0l55.312-55.312
	C479.26,165.296,479.26,111.806,446.269,78.815z"/>
<path style="fill:#A78DC4;" d="M256,382.788c-3.918,7.659-9.08,14.838-15.485,21.253l-55.317,55.317
	c-3.814,3.814-7.899,7.189-12.204,10.115c-10.71,7.314-22.737,11.88-35.088,13.709c-0.01,0-0.01,0-0.01,0
	c-39.372-20.501-72.746-50.949-96.799-88.012c0.794-15.12,5.632-30.062,14.514-43.081c2.926-4.294,6.301-8.391,10.115-12.204
	l55.317-55.306c30.772-30.783,79.381-32.852,112.546-6.196c2.393,1.912,4.702,3.981,6.917,6.196h0.01
	c2.215,2.215,4.284,4.524,6.196,6.917c3.636,4.514,6.729,9.32,9.289,14.336C268.34,329.916,268.34,358.703,256,382.788z"/>
<path style="fill:#B6D949;" d="M512,256c0,24.68-3.49,48.536-10.01,71.116c0,0.01,0,0.01,0,0.01
	c-11.975,12.654-27.805,21.598-45.61,24.963c-5.11,0.972-10.386,1.473-15.778,1.473h-78.221c-9.059,0-17.795-1.432-25.976-4.075
	c-12.884-4.148-24.409-11.316-33.761-20.668s-16.52-20.877-20.668-33.761c-1.735-5.35-2.936-10.93-3.563-16.687
	c-0.345-3.051-0.512-6.154-0.512-9.289c0-46.655,37.825-84.48,84.48-84.48h78.221c28.442,0,53.593,14.054,68.911,35.6
	c0,0,0,0,0,0.01C511.154,231.905,512,243.858,512,256z"/>
<path style="fill:#D884A9;" d="M234.099,269.082c0,3.145-0.167,6.249-0.512,9.3c-0.627,5.757-1.829,11.327-3.563,16.677
	c-8.307,25.767-28.662,46.122-54.429,54.429c-8.182,2.644-16.917,4.075-25.976,4.075H71.387c-5.392,0-10.668-0.502-15.778-1.473
	c-17-3.208-32.204-11.515-43.959-23.27c-0.554-0.554-1.097-1.108-1.63-1.682C3.49,304.556,0,280.68,0,256
	c0-12.152,0.846-24.106,2.487-35.798c-0.01-0.01,0-0.01,0-0.01c15.308-21.535,40.469-35.589,68.901-35.589h78.232
	C196.274,184.602,234.099,222.427,234.099,269.082z"/>
<path style="fill:#68C29A;" d="M470.904,395.17c-24.054,37.063-57.417,67.5-96.789,88.022c0,0,0,0-0.01,0
	c-12.351-1.829-24.377-6.395-35.098-13.709c-4.305-2.926-8.401-6.311-12.215-10.125l-55.306-55.317
	c-6.416-6.416-11.577-13.594-15.485-21.253c-6.175-12.048-9.258-25.255-9.258-38.484c0-13.208,3.082-26.436,9.258-38.473
	c2.55-5.016,5.653-9.822,9.289-14.336c1.912-2.393,3.981-4.702,6.196-6.917s4.535-4.294,6.928-6.207
	c33.165-26.645,81.763-24.576,112.546,6.207l55.306,55.306c3.814,3.814,7.189,7.91,10.115,12.204
	C465.272,365.108,470.11,380.05,470.904,395.17z"/>
<path style="fill:#F57858;" d="M240.509,253.599L240.509,253.599c32.992-32.992,32.992-86.481,0-119.473l-55.312-55.312
	c-32.992-32.992-86.481-32.992-119.473,0l0,0c-32.992,32.992-32.992,86.481,0,119.473l55.312,55.312
	C154.028,286.59,207.518,286.59,240.509,253.599z"/>
<path style="fill:#7DB400;" d="M456.34,186.108c-2.91,4.286-6.258,8.354-10.075,12.171l-55.319,55.319
	c-6.415,6.415-13.579,11.576-21.245,15.489c-24.092-12.328-52.878-12.328-76.97,0c-5.006-2.535-9.794-5.632-14.299-9.262
	c0.595-5.757,1.815-11.358,3.536-16.708c12.891-4.162,24.406-11.327,33.761-20.682c9.355-9.324,16.521-20.87,20.682-33.761
	c8.167-2.628,16.896-4.068,25.97-4.068h78.222C445.983,184.606,451.24,185.107,456.34,186.108z"/>
<path style="fill:#399752;" d="M446.264,339.893c3.817,3.817,7.165,7.885,10.075,12.171c-5.1,1.001-10.357,1.502-15.738,1.502
	h-78.222c-9.074,0-17.803-1.439-25.97-4.068c-8.323-25.782-28.661-46.12-54.442-54.442c-1.721-5.351-2.941-10.92-3.536-16.677
	c4.506-3.63,9.293-6.727,14.299-9.293c12.047,6.195,25.281,9.262,38.486,9.262c13.204,0,26.439-3.067,38.486-9.262
	c7.665,3.911,14.831,9.074,21.245,15.488L446.264,339.893z"/>
<path style="fill:#37769C;" d="M340.477,375.468v78.222c0,5.381-0.501,10.638-1.502,15.738c-4.286-2.91-8.354-6.258-12.171-10.075
	l-55.319-55.319c-6.415-6.415-11.576-13.579-15.489-21.245c12.328-24.092,12.328-52.878,0-76.97
	c2.565-5.006,5.632-9.794,9.293-14.299c5.757,0.595,11.327,1.815,16.677,3.536c4.162,12.891,11.327,24.437,20.682,33.761
	c9.355,9.355,20.87,16.521,33.761,20.682C339.038,357.697,340.477,366.426,340.477,375.468z"/>
<path style="fill:#E0B100;" d="M340.477,84.481v78.222c0,9.043-1.439,17.772-4.068,25.97c-25.782,8.323-46.12,28.661-54.442,54.442
	c-5.35,1.721-10.92,2.941-16.677,3.536c-3.661-4.506-6.727-9.293-9.293-14.299c12.328-24.092,12.328-52.878,0-76.97
	c3.911-7.665,9.074-14.831,15.489-21.245l55.319-55.319c3.817-3.817,7.885-7.165,12.171-10.075
	C339.976,73.843,340.477,79.1,340.477,84.481z"/>
<path style="fill:#055302;" d="M292.73,269.086c24.092-12.328,52.878-12.328,76.97,0c-12.047,6.195-25.281,9.262-38.486,9.262
	C318.012,278.348,304.776,275.281,292.73,269.086z"/>
<path style="fill:#548100;" d="M336.409,188.674c-4.162,12.891-11.327,24.437-20.682,33.761
	c-9.355,9.355-20.87,16.521-33.761,20.682C290.289,217.335,310.627,196.997,336.409,188.674z"/>
<path style="fill:#0C4422;" d="M281.967,295.056c25.782,8.323,46.12,28.661,54.442,54.442
	c-12.891-4.162-24.406-11.327-33.761-20.682C293.293,319.493,286.128,307.947,281.967,295.056z"/>
<path style="fill:#90FC9F;" d="M278.431,259.824c4.506,3.63,9.293,6.727,14.299,9.262c-5.006,2.565-9.794,5.663-14.299,9.293
	c-0.375-3.067-0.532-6.164-0.532-9.293S278.056,262.86,278.431,259.824z"/>
<path style="fill:#FFDC8D;" d="M281.967,243.116c-1.721,5.35-2.941,10.952-3.536,16.708c-2.41-1.909-4.725-4.005-6.946-6.227
	c-2.221-2.221-4.286-4.537-6.195-6.946C271.047,246.058,276.616,244.837,281.967,243.116z"/>
<path style="fill:#5BD3A2;" d="M278.431,278.38c0.595,5.757,1.815,11.327,3.536,16.677c-5.35-1.721-10.92-2.941-16.677-3.536
	c1.909-2.41,3.974-4.725,6.195-6.947C273.707,282.352,276.021,280.288,278.431,278.38z"/>
<path style="fill:#F9AF6B;" d="M265.289,246.652c-3.035,0.375-6.133,0.532-9.293,0.532c-3.161,0-6.258-0.157-9.293-0.532
	c3.66-4.506,6.727-9.293,9.293-14.299C258.562,237.359,261.629,242.147,265.289,246.652z"/>
<path style="fill:#75ADDF;" d="M255.997,290.988c3.16,0,6.258,0.157,9.293,0.532c-3.661,4.506-6.727,9.293-9.293,14.299
	c-2.565-5.006-5.632-9.794-9.293-14.299C249.739,291.145,252.837,290.988,255.997,290.988z"/>
<path style="fill:#A75000;" d="M255.997,155.383c12.328,24.092,12.328,52.878,0,76.97
	C243.669,208.261,243.669,179.475,255.997,155.383z"/>
<path style="fill:#231F63;" d="M255.997,305.82c12.328,24.092,12.328,52.878,0,76.97c-6.164-12.047-9.262-25.281-9.262-38.486
	C246.735,331.101,249.833,317.865,255.997,305.82z"/>
<path style="fill:#F95500;" d="M255.997,232.353c-2.565,5.006-5.632,9.794-9.293,14.299c-5.757-0.595-11.327-1.815-16.677-3.536
	c-8.323-25.782-28.661-46.12-54.442-54.442c-2.628-8.197-4.068-16.927-4.068-25.97V84.481c0-5.381,0.501-10.638,1.502-15.738
	c4.286,2.91,8.354,6.258,12.171,10.075l55.319,55.319c6.415,6.415,11.576,13.579,15.489,21.245
	C243.669,179.475,243.669,208.261,255.997,232.353z"/>
<path style="fill:#68549D;" d="M246.704,291.52c3.66,4.506,6.727,9.293,9.293,14.299c-6.164,12.047-9.262,25.281-9.262,38.486
	c0,13.204,3.098,26.439,9.262,38.486c-3.911,7.665-9.074,14.831-15.489,21.245l-55.319,55.319
	c-3.817,3.817-7.885,7.165-12.171,10.075c-1.001-5.1-1.502-10.357-1.502-15.738V375.47c0-9.043,1.439-17.772,4.068-25.97
	c25.782-8.323,46.12-28.661,54.442-54.442C235.378,293.335,240.947,292.115,246.704,291.52z"/>
<path style="fill:#FF6E7C;" d="M233.563,259.824c-0.595-5.757-1.815-11.358-3.536-16.708c5.351,1.721,10.92,2.941,16.677,3.536
	c-1.909,2.41-3.974,4.725-6.195,6.946S235.971,257.916,233.563,259.824z"/>
<path style="fill:#A18DC5;" d="M246.704,291.52c-5.757,0.595-11.327,1.815-16.677,3.536c1.721-5.351,2.941-10.92,3.536-16.677
	c2.41,1.909,4.725,3.974,6.946,6.195C242.73,286.796,244.796,289.111,246.704,291.52z"/>
<path style="fill:#D884A9;" d="M233.563,259.824c0.375,3.035,0.532,6.133,0.532,9.262s-0.157,6.227-0.532,9.293
	c-4.506-3.63-9.293-6.727-14.299-9.293C224.27,266.551,229.057,263.454,233.563,259.824z"/>
<path style="fill:#CE1501;" d="M230.027,243.116c1.721,5.35,2.941,10.952,3.536,16.708c-4.506,3.63-9.293,6.727-14.299,9.262
	c-24.092-12.328-52.878-12.328-76.97,0c-7.665-3.911-14.831-9.074-21.245-15.489l-55.32-55.318
	c-3.817-3.817-7.165-7.885-10.075-12.171c5.1-1.001,10.357-1.502,15.738-1.502h78.222c9.074,0,17.803,1.439,25.97,4.068
	C183.907,214.456,204.245,234.794,230.027,243.116z"/>
<path style="fill:#A93D64;" d="M233.563,278.38c-0.595,5.757-1.815,11.327-3.536,16.677c-25.782,8.323-46.12,28.661-54.442,54.442
	c-8.167,2.628-16.896,4.068-25.97,4.068H71.392c-5.381,0-10.638-0.501-15.738-1.502c2.91-4.286,6.258-8.354,10.075-12.171
	l55.319-55.319c6.415-6.415,13.579-11.576,21.245-15.489c24.092,12.359,52.878,12.359,76.97,0
	C224.27,271.652,229.057,274.75,233.563,278.38z"/>
<path style="fill:#AC0000;" d="M175.585,188.674c25.782,8.323,46.12,28.661,54.442,54.442
	C204.245,234.794,183.907,214.456,175.585,188.674z"/>
<path style="fill:#511031;" d="M230.027,295.056c-8.323,25.782-28.661,46.12-54.442,54.442
	C183.907,323.717,204.245,303.379,230.027,295.056z"/>
<path style="fill:#860700;" d="M142.293,269.086c24.092-12.328,52.878-12.328,76.97,0
	C195.171,281.445,166.385,281.445,142.293,269.086z"/>
<g>
</g>
<g>
</g>
<g>
</g>
<g>
</g>
<g>
</g>
<g>
</g>
<g>
</g>
<g>
</g>
<g>
</g>
<g>
</g>
<g>
</g>
<g>
</g>
<g>
</g>
<g>
</g>
<g>
</g>
</svg>
