<svg id="Capa_1" enable-background="new 0 0 512 512" height="512" viewBox="0 0 512 512" width="512" xmlns="http://www.w3.org/2000/svg" xmlns:xlink="http://www.w3.org/1999/xlink"><linearGradient id="lg1"><stop offset="0" stop-color="#560dff"/><stop offset="1" stop-color="#73ecff"/></linearGradient><linearGradient id="SVGID_1_" gradientUnits="userSpaceOnUse" x1="74.98" x2="437.019" xlink:href="#lg1" y1="437.019" y2="74.98"/><radialGradient id="SVGID_2_" cx="306.704" cy="242.309" gradientUnits="userSpaceOnUse" r="310.071"><stop offset="0" stop-color="#6b23ea"/><stop offset=".0449" stop-color="#6538e6" stop-opacity=".955"/><stop offset=".141" stop-color="#5b5fe0" stop-opacity=".859"/><stop offset=".244" stop-color="#5180da" stop-opacity=".756"/><stop offset=".3536" stop-color="#4a9cd5" stop-opacity=".646"/><stop offset=".4722" stop-color="#44b1d2" stop-opacity=".528"/><stop offset=".6041" stop-color="#40c0cf" stop-opacity=".396"/><stop offset=".7599" stop-color="#3ec8cd" stop-opacity=".24"/><stop offset="1" stop-color="#3dcbcd" stop-opacity="0"/></radialGradient><linearGradient id="lg2"><stop offset="0" stop-color="#389fff"/><stop offset=".1209" stop-color="#45affa"/><stop offset=".5726" stop-color="#73e9e7"/><stop offset=".79" stop-color="#85ffe0"/><stop offset=".8218" stop-color="#90ffe3"/><stop offset=".938" stop-color="#b4ffec"/><stop offset="1" stop-color="#c2fff0"/></linearGradient><linearGradient id="SVGID_3_" gradientUnits="userSpaceOnUse" x1="183.822" x2="557.092" xlink:href="#lg2" y1="435.008" y2="61.738"/><linearGradient id="lg3"><stop offset="0" stop-color="#3dcbcd" stop-opacity="0"/><stop offset=".4052" stop-color="#3ec9cd" stop-opacity=".405"/><stop offset=".5512" stop-color="#3fc2ce" stop-opacity=".551"/><stop offset=".6552" stop-color="#43b7d1" stop-opacity=".655"/><stop offset=".7394" stop-color="#47a6d3" stop-opacity=".739"/><stop offset=".8115" stop-color="#4d90d7" stop-opacity=".812"/><stop offset=".8753" stop-color="#5574dc" stop-opacity=".875"/><stop offset=".933" stop-color="#5e54e2" stop-opacity=".933"/><stop offset=".9844" stop-color="#6830e8" stop-opacity=".984"/><stop offset="1" stop-color="#6b23ea"/></linearGradient><radialGradient id="SVGID_4_" cx="286.754" cy="520.318" gradientUnits="userSpaceOnUse" r="221.252" xlink:href="#lg3"/><linearGradient id="SVGID_5_" gradientUnits="userSpaceOnUse" x1="15.53" x2="509.445" y1="541.862" y2="47.947"><stop offset="0" stop-color="#389fff"/><stop offset=".1209" stop-color="#45affa"/><stop offset=".5726" stop-color="#73e9e7"/><stop offset=".79" stop-color="#85ffe0"/><stop offset=".8799" stop-color="#9dffe6"/><stop offset=".9973" stop-color="#c2fff0"/></linearGradient><linearGradient id="SVGID_6_" gradientUnits="userSpaceOnUse" x1="262.859" x2="378.17" xlink:href="#lg1" y1="198.748" y2="83.436"/><linearGradient id="SVGID_7_" gradientUnits="userSpaceOnUse" x1="291.117" x2="370.136" xlink:href="#lg1" y1="170.493" y2="91.473"/><linearGradient id="SVGID_8_" gradientUnits="userSpaceOnUse" x1="125.245" x2="409.824" xlink:href="#lg2" y1="368.399" y2="83.82"/><radialGradient id="SVGID_9_" cx="191.128" cy="458.638" gradientUnits="userSpaceOnUse" r="205.682" xlink:href="#lg3"/><linearGradient id="lg4"><stop offset="0" stop-color="#389fff"/><stop offset=".1209" stop-color="#45affa"/><stop offset=".5726" stop-color="#73e9e7"/><stop offset=".79" stop-color="#85ffe0"/><stop offset=".881" stop-color="#9dffe6"/><stop offset="1" stop-color="#c2fff0"/></linearGradient><linearGradient id="SVGID_10_" gradientUnits="userSpaceOnUse" x1="126.781" x2="532.286" xlink:href="#lg4" y1="363.75" y2="-41.755"/><linearGradient id="SVGID_11_" gradientUnits="userSpaceOnUse" x1="-97.2" x2="336.154" xlink:href="#lg4" y1="600.192" y2="166.838"/><g><circle cx="256" cy="256" fill="url(#SVGID_1_)" r="256"/><circle cx="256" cy="256" fill="url(#SVGID_2_)" r="256"/><path d="m175.717 426.9c17.979 18.297 46.202 18.759 63.731.818 25.731-26.274 51.997-52.865 78.445-79.408-21.637-10.052-43.377-20.265-65.175-30.539-26.155 36.653-52.048 73.197-77.001 109.129z" fill="url(#SVGID_3_)"/><path d="m175.717 426.9c17.979 18.297 46.202 18.759 63.731.818 25.731-26.274 51.997-52.865 78.445-79.408-21.637-10.052-43.377-20.265-65.175-30.539-26.155 36.653-52.048 73.197-77.001 109.129z" fill="url(#SVGID_4_)"/><path d="m377.544 72.892c-6.575-.23-13.151-.441-19.726-.634-41.259-1.279-74.601 33.001-74.559 75.441.025 5.877.048 11.754.069 17.631-27.126 56.472-55.043 113.285-82.058 169.586-28.521 28.577-56.664 56.805-83.969 84.205-3.182 3.192-2.516 8.759 1.436 11.509 17.926 12.494 41.555 11.42 56.712-4.004 22.37-22.716 45.232-45.839 68.345-69.112 5.714-5.753 13.488-8.987 21.594-9 18.189-.023 36.379-.116 54.568-.277 64.076-.844 117.804-53.554 117.463-116.265-.087-13.498-2.702-26.903-7.685-39.672-14.715-37.712-29.826-75.816-44.933-114.157-1.2-3.042-4.095-5.141-7.257-5.251z" fill="url(#SVGID_5_)"/><path d="m359.053 118.136c.182 8.489-6.557 15.233-15.029 15.099-8.472-.139-15.424-7.136-15.543-15.667-.119-8.528 6.589-15.328 14.998-15.148 8.408.178 15.392 7.23 15.574 15.716z" fill="url(#SVGID_6_)"/><path d="m348.429 124.147c-8.457-.154-15.411-7.166-15.546-15.69-.011-.647.031-1.284.097-1.91-2.826 2.754-4.562 6.661-4.499 11.021.12 8.531 7.072 15.531 15.543 15.667 7.826.124 14.163-5.629 14.939-13.197-2.696 2.612-6.404 4.184-10.534 4.109z" fill="url(#SVGID_7_)"/><path d="m169.197 281.903c-11.013 17.546-21.947 35.008-32.734 52.346 18.161 18.058 47.028 18.518 64.807.667 17.494-17.529 35.13-35.188 52.802-52.868-28.292-.002-56.584-.05-84.875-.145z" fill="url(#SVGID_8_)"/><path d="m169.197 281.903c-11.013 17.546-21.947 35.008-32.734 52.346 18.161 18.058 47.028 18.518 64.807.667 17.494-17.529 35.13-35.188 52.802-52.868-28.292-.002-56.584-.05-84.875-.145z" fill="url(#SVGID_9_)"/><path d="m272.89 163.849c-19.835-.687-37.864 7.204-50.854 20.228-29.944 30.034-60.099 60.075-89.948 89.585 56.461.185 112.923.244 169.384.176-.003-.022 31.256-35.129 34.222-63.708-9.419-25.98-34.036-45.283-62.804-46.281z" fill="url(#SVGID_10_)"/><path d="m335.694 210.131c-9.352 26.57-34.942 45.712-64.962 45.723-31.728 0-63.457 0-95.185 0-16.308.002-31.962 6.446-43.459 17.809-18.377 18.168-36.637 36.136-54.662 53.779-3.284 3.211-2.698 8.72 1.287 11.389 18.071 12.117 42.236 10.851 57.75-4.581 7.929-7.87 15.896-15.786 23.892-23.739 5.711-5.68 13.504-8.854 21.644-8.814 29.571.149 59.141.208 88.712.18 38.384-.082 69.7-31.611 69.024-69.961-.135-7.605-1.562-14.926-4.041-21.785z" fill="url(#SVGID_11_)"/></g></svg>